<svg width="120" height="61" viewBox="0 0 120 61" fill="none" xmlns="http://www.w3.org/2000/svg">
<path d="M30.2521 60.5522C13.5414 60.5522 0 47.0108 0 30.3001C0 13.5894 13.5414 0 30.2521 0H89.7479C106.459 0 120 13.5414 120 30.2521C120 46.9628 106.459 60.5042 89.7479 60.5042H30.2521V60.5522Z" fill="url(#paint0_linear_5795_2978)"/>
<path d="M35.0051 38.9916C39.8318 38.9916 43.7446 35.0788 43.7446 30.2521C43.7446 25.4254 39.8318 21.5126 35.0051 21.5126C30.1784 21.5126 26.2656 25.4254 26.2656 30.2521C26.2656 35.0788 30.1784 38.9916 35.0051 38.9916Z" fill="#C2EBFF"/>
<path d="M68.7622 30.2521C68.7622 35.054 64.8726 38.9916 60.0227 38.9916C55.1728 38.9916 51.2832 35.102 51.2832 30.2521H68.7142H68.7622Z" fill="#C2EBFF"/>
<path d="M85.0403 38.9916C89.867 38.9916 93.7798 35.0788 93.7798 30.2521C93.7798 25.4254 89.867 21.5126 85.0403 21.5126C80.2136 21.5126 76.3008 25.4254 76.3008 30.2521C76.3008 35.0788 80.2136 38.9916 85.0403 38.9916Z" fill="#C2EBFF"/>
<defs>
<linearGradient id="paint0_linear_5795_2978" x1="60.024" y1="1.2485" x2="60.024" y2="58.5834" gradientUnits="userSpaceOnUse">
<stop stop-color="#00A4FF"/>
<stop offset="1" stop-color="#0D64FF"/>
</linearGradient>
</defs>
</svg>
